<!DOCTYPE svg PUBLIC "-//W3C//DTD SVG 1.1//EN" "http://www.w3.org/Graphics/SVG/1.1/DTD/svg11.dtd">
<!-- Uploaded to: SVG Repo, www.svgrepo.com, Transformed by: SVG Repo Mixer Tools -->
<svg fill="#000000" width="80px" height="80px" viewBox="0 0 24.00 24.00" id="save" data-name="Flat Color" xmlns="http://www.w3.org/2000/svg" class="icon flat-color" transform="matrix(1, 0, 0, 1, 0, 0)rotate(0)">
<g id="SVGRepo_bgCarrier" stroke-width="0"/>
<g id="SVGRepo_tracerCarrier" stroke-linecap="round" stroke-linejoin="round" stroke="#CCCCCC" stroke-width="0.048"/>
<g id="SVGRepo_iconCarrier">
<path id="primary" d="M20.71,6.29l-4-4A1,1,0,0,0,16,2H5A2,2,0,0,0,3,4V20a2,2,0,0,0,2,2H19a2,2,0,0,0,2-2V7A1,1,0,0,0,20.71,6.29Z" style="fill: #000000;"/>
<path id="secondary" d="M17,15v7H7V15a1,1,0,0,1,1-1h8A1,1,0,0,1,17,15ZM11,7a1,1,0,0,0-1-1H8A1,1,0,0,0,8,8h2A1,1,0,0,0,11,7Z" style="fill: #FF0404;"/>
</g>
</svg>